<?xml version="1.0" standalone="no"?><!DOCTYPE svg PUBLIC "-//W3C//DTD SVG 1.1//EN" "http://www.w3.org/Graphics/SVG/1.1/DTD/svg11.dtd"><svg t="1697688783043" class="icon" viewBox="0 0 1024 1024" version="1.1" xmlns="http://www.w3.org/2000/svg" p-id="5994" xmlns:xlink="http://www.w3.org/1999/xlink" width="200" height="200"><path d="M205.937778 727.04c-5.688889 0-10.24-1.137778-14.791111-4.551111-7.964444-5.688889-11.377778-15.928889-9.102223-26.168889 7.964444-26.168889 13.653333-54.613333 13.653334-67.128889-67.128889-50.062222-105.813333-121.742222-105.813334-197.973333C89.884444 285.582222 227.555556 168.391111 398.222222 168.391111c122.88 0 234.382222 62.577778 283.306667 159.288889 5.688889 11.377778 1.137778 26.168889-10.24 32.995556-11.377778 5.688889-26.168889 1.137778-32.995556-10.24-40.96-80.782222-134.257778-133.12-240.071111-133.12-143.36 0-259.413333 96.711111-259.413333 215.04 0 62.577778 32.995556 122.88 91.022222 163.84 7.964444 5.688889 19.342222 13.653333 11.377778 60.302222 51.2-26.168889 64.853333-22.755556 71.68-20.48 22.755556 6.826667 46.648889 10.24 70.542222 11.377778 13.653333 1.137778 23.893333 12.515556 22.755556 25.031111-1.137778 13.653333-12.515556 23.893333-25.031111 22.755555-27.306667-1.137778-53.475556-5.688889-78.506667-12.515555-12.515556 2.275556-53.475556 23.893333-84.195556 43.235555-3.413333 0-7.964444 1.137778-12.515555 1.137778z" fill="#959595" p-id="5995"></path><path d="M831.715556 856.746667c-4.551111 0-9.102222-1.137778-12.515556-3.413334-27.306667-17.066667-58.026667-32.995556-68.266667-35.271111-26.168889 6.826667-53.475556 10.24-80.782222 10.24-144.497778 0-261.688889-100.124444-261.688889-224.142222s117.191111-224.142222 261.688889-224.142222 261.688889 100.124444 261.688889 224.142222c0 64.853333-31.857778 125.155556-87.608889 167.253333 1.137778 11.377778 5.688889 32.995556 11.377778 53.475556 2.275556 9.102222-1.137778 20.48-9.102222 26.168889-4.551111 4.551111-9.102222 5.688889-14.791111 5.688889z m-81.92-87.608889c7.964444 0 21.617778 3.413333 47.786666 15.928889-4.551111-35.271111 5.688889-42.097778 12.515556-46.648889 47.786667-32.995556 75.093333-81.92 75.093333-133.12 0-96.711111-95.573333-175.217778-212.764444-175.217778s-212.764444 78.506667-212.764445 175.217778 95.573333 175.217778 212.764445 175.217778c23.893333 0 47.786667-3.413333 70.542222-10.24 0 0 2.275556-1.137778 6.826667-1.137778z" fill="#959595" p-id="5996"></path><path d="M327.68 382.293333c0 28.444444-17.066667 52.337778-37.546667 52.337778-20.48 0-37.546667-23.893333-37.546666-52.337778s17.066667-52.337778 37.546666-52.337777c20.48 0 37.546667 23.893333 37.546667 52.337777zM494.933333 382.293333c0 28.444444-17.066667 52.337778-37.546666 52.337778-20.48 0-37.546667-23.893333-37.546667-52.337778s17.066667-52.337778 37.546667-52.337777c20.48 0 37.546667 23.893333 37.546666 52.337777zM630.328889 555.235556c0 19.342222-11.377778 35.271111-25.031111 35.271111-13.653333 0-25.031111-15.928889-25.031111-35.271111 0-19.342222 11.377778-35.271111 25.031111-35.271112 13.653333 1.137778 25.031111 15.928889 25.031111 35.271112zM777.102222 551.822222c0 19.342222-11.377778 35.271111-25.031111 35.271111s-25.031111-15.928889-25.031111-35.271111c0-19.342222 11.377778-35.271111 25.031111-35.271111s25.031111 15.928889 25.031111 35.271111z" fill="#0062FF" p-id="5997"></path></svg>